<mxfile host="app.diagrams.net" modified="2023-03-24T08:51:53.859Z" agent="Mozilla/5.0 (Windows NT 10.0; Win64; x64) AppleWebKit/537.36 (KHTML, like Gecko) Chrome/109.0.0.0 Safari/537.36" version="21.1.0" etag="_nKF5ieuwtrI5kTJ6LDr" type="github">
  <diagram name="第 1 页" id="gPW0CC7QNZ6jHEk-Gq9e">
    <mxGraphModel>
      <root>
        <mxCell id="0" />
        <mxCell id="1" parent="0" />
      </root>
    </mxGraphModel>
  </diagram>
</mxfile>
